<svg viewBox="0 0 500 500" xmlns="http://www.w3.org/2000/svg"><defs><style>.a{fill:#ffd08f;}.b{fill:#5e2e0d;}.c{fill:#e2b279;}.d{fill:#ffdc35;}.e{fill:#ffb636;}.f{fill:#ffb92e;}.g{fill:#fff3c0;}.h{fill:#42210b;}.i{fill:#281206;}.j{fill:#fff;}.k{fill:#e8e8e8;}.l{fill:#230f04;}.m{fill:#ff1739;}.n{fill:#c40633;}</style></defs><title>画板 1</title><path d="M192.08,355.45s-16-8-8-50.76-24-8-21.37,24.05c0,0,5.34-32.06-5.34-16s5.34,40.07,5.34,40.07S152,334.08,152,350.11s24.05,29.39,24.05,29.39Z" class="a"></path><path d="M176.05,382.26a2.79,2.79,0,0,1-1.34-.35c-1-.58-25.46-14.35-25.46-31.8,0-2.2,0-8.06,4-9.11a3.71,3.71,0,0,1,.58-.11c-3.15-8.79-5-20.33,1.24-29.71,1.34-2,4.44-6.64,8-5.57,3.63-10.84,9.6-19.62,14.56-22.44,3.48-2,5.91-.92,7-.11,3.7,2.63,4.37,9.88,2.08,22.14-7.43,39.59,6.39,47.71,6.53,47.78a2.81,2.81,0,0,1,1.44,1.76,2.77,2.77,0,0,1-.38,2.24l-16,24A2.75,2.75,0,0,1,176.05,382.26ZM155,347a18.59,18.59,0,0,0-.22,3.14c0,11.57,14.79,22.06,20.46,25.66l13.14-19.71c-4.62-4.35-13.45-17.53-7-51.88,2.68-14.26.19-16.6.15-16.63s-.89,0-2.79,1.67c-4.26,3.85-9.46,13-12,23.59.24,3.43,0,8.58-1.35,16.38a2.73,2.73,0,0,1-2.83,2.3,2.77,2.77,0,0,1-2.64-2.53,55.48,55.48,0,0,1,1.26-16.51q0-.17,0-.3c-.4.49-.91,1.16-1.53,2.09-7.77,11.65.59,28.77,4,34.81.5.78,1,1.58,1.43,2.36a2.76,2.76,0,0,1-4.7,2.9c-.11-.17-.64-1-1.39-2.27A29.17,29.17,0,0,0,155,347Z" class="b"></path><path d="M281.66,418.54c-6.08,0-12.75-.29-20.47-.63-9.94-.43-21.21-.92-34.38-.92-38.13,0-48.65-15.08-51.53-24.06-4.35-13.59,3-27.58,12.52-34.38,17.75-12.68,38.84-78.09,39-78.75a2.77,2.77,0,0,1,2.63-1.91,2,2,0,0,1,.35,0l82.83,10.69a2.74,2.74,0,0,1,2.07,1.42c1.45,2.67,35.22,65.84,16,101.47-12.31,22.86-26.19,27.05-49.1,27.05Z" class="a"></path><path d="M229.48,280.65l82.82,10.68s34.74,64.12,16,98.85c-11.57,21.51-24.17,25.6-46.67,25.6-13.85,0-31.44-1.55-54.85-1.55-61.45,0-56.1-40.08-37.4-53.43s40.07-80.15,40.07-80.15m0-5.52a5.51,5.51,0,0,0-5.25,3.83c-5.8,18.1-23.92,67.27-38,77.34-10.33,7.39-18.3,22.62-13.55,37.47,3.11,9.7,14.28,26,54.16,26,13.11,0,24.34.49,34.26.92,7.75.34,14.45.63,20.59.63,23.47,0,38.63-4.54,51.53-28.5,19.89-36.93-14.56-101.37-16-104.1a5.53,5.53,0,0,0-4.15-2.84l-82.82-10.69a5.74,5.74,0,0,0-.71,0Z" class="b"></path><path d="M281.66,418.54c-6.08,0-12.75-.29-20.47-.63-9.94-.43-21.21-.92-34.38-.92-38.13,0-48.65-15.08-51.53-24.06-4.35-13.59,3-27.58,12.52-34.38,17.75-12.68,38.84-78.09,39-78.75a2.77,2.77,0,0,1,2.63-1.91,2,2,0,0,1,.35,0l82.83,10.69a2.74,2.74,0,0,1,2.07,1.42c1.45,2.67,35.22,65.84,16,101.47-12.31,22.86-26.19,27.05-49.1,27.05Z" class="a"></path><path d="M229.48,280.65l82.82,10.68s34.74,64.12,16,98.85c-11.57,21.51-24.17,25.6-46.67,25.6-13.85,0-31.44-1.55-54.85-1.55-61.45,0-56.1-40.08-37.4-53.43s40.07-80.15,40.07-80.15m0-5.52a5.51,5.51,0,0,0-5.25,3.83c-5.8,18.1-23.92,67.27-38,77.34-10.33,7.39-18.3,22.62-13.55,37.47,3.11,9.7,14.28,26,54.16,26,13.11,0,24.34.49,34.26.92,7.75.34,14.45.63,20.59.63,23.47,0,38.63-4.54,51.53-28.5,19.89-36.93-14.56-101.37-16-104.1a5.53,5.53,0,0,0-4.15-2.84l-82.82-10.69a5.74,5.74,0,0,0-.71,0Z" class="b"></path><path d="M313.68,294h-88.8c-1.69,4.68-3.79,10.27-6.17,16.2a147.65,147.65,0,0,0,27,21c.75,7.18,5,27.86,29.22,32.26,14.14,2.57,25.18-2.9,32.84-9.27,7.8,11.53-2.89,30.07-8.79,36-10.69,10.69-37.41,29.39-64.12,10.69-17.94-12.56-43.09-13.07-57.69-12.05,2.2,13.19,15.75,25.41,49.67,25.41,61.45,0,82.82,10.69,101.52-24.05C344.77,359.66,319.94,306.45,313.68,294Z" class="c"></path><path d="M321.72,310.48a149.86,149.86,0,0,1-101.33-6.31l2.83-45.33a149.85,149.85,0,0,0,101.33,6.31Z" class="d"></path><path d="M279.87,319.2a152.86,152.86,0,0,1-60.57-12.5l-1.78-.77,3.19-51.18,3.6,1.56a147.42,147.42,0,0,0,99.46,6.19l3.77-1.09-3.19,51.18-1.86.54A152.23,152.23,0,0,1,279.87,319.2Zm-56.6-16.81a147.44,147.44,0,0,0,95.82,6l2.46-39.51a153,153,0,0,1-95.82-6Z" class="b"></path><path d="M279.83,319.22A151.66,151.66,0,0,1,219.3,306.7a2.75,2.75,0,0,1-1.66-2.7l2.82-45.33a2.78,2.78,0,0,1,2.76-2.59,2.6,2.6,0,0,1,1.09.23,147.07,147.07,0,0,0,99.46,6.19,3,3,0,0,1,.78-.11,2.77,2.77,0,0,1,2.75,2.93l-2.83,45.33a2.74,2.74,0,0,1-2,2.48A152.48,152.48,0,0,1,279.83,319.22Z" class="d"></path><path d="M223.22,258.84a149.81,149.81,0,0,0,101.33,6.31q-1.43,22.67-2.83,45.33a149.81,149.81,0,0,1-101.33-6.31q1.41-22.67,2.83-45.33m0-5.52a5.5,5.5,0,0,0-5.51,5.17l-2.82,45.33a5.5,5.5,0,0,0,3.31,5.41,155.28,155.28,0,0,0,105.06,6.55,5.52,5.52,0,0,0,4-4.95l2.82-45.33a5.52,5.52,0,0,0-5.51-5.87,5.85,5.85,0,0,0-1.54.22,144.25,144.25,0,0,1-97.59-6.08,5.58,5.58,0,0,0-2.19-.45Z" class="b"></path><path d="M324.39,297.12a149.86,149.86,0,0,1-101.33-6.31l2.83-45.33a149.86,149.86,0,0,0,101.33,6.31Z" class="e"></path><ellipse transform="translate(-115.86 506.16) rotate(-73.96)" ry="23.76" rx="21.66" cy="330.02" cx="278.18" class="f"></ellipse><path d="M279.37,354.61a28.58,28.58,0,0,1-7.94-1.13,27.53,27.53,0,0,1-16-11.94A23.09,23.09,0,0,1,265,308.18a28.18,28.18,0,0,1,35.86,10.31,23.3,23.3,0,0,1,2.76,18.85h0a23.33,23.33,0,0,1-12.35,14.51A26.92,26.92,0,0,1,279.37,354.61ZM277,310.94a21.43,21.43,0,0,0-9.5,2.19,17.58,17.58,0,0,0-7.34,25.52,22.65,22.65,0,0,0,28.72,8.25,17.92,17.92,0,0,0,9.49-11.08h0a17.87,17.87,0,0,0-2.16-14.43,22,22,0,0,0-12.8-9.54A23.25,23.25,0,0,0,277,310.94Z" class="b"></path><path d="M284,352.81a6.88,6.88,0,0,1-5.55-2.81,7.43,7.43,0,0,1-1.19-6.62l.72-2.5a3,3,0,0,0-.3-2.39,2.36,2.36,0,0,0-1.58-1.09,2,2,0,0,0-.35,0,3.08,3.08,0,0,0-2.68,2.34l-.65,2.27a7.48,7.48,0,0,1-7.09,5.47,6.89,6.89,0,0,1-4.82-2c-8.56-8.4-11.1-21.34-6.48-33,4.52-11.37,15.42-19,27.14-19a27.35,27.35,0,0,1,23.22,12.95,30.64,30.64,0,0,1,3.38,24.83,30.12,30.12,0,0,1-22.26,21.38,7,7,0,0,1-1.51.16Z" class="d"></path><path d="M281.21,296.25a24.26,24.26,0,0,1,3.88.31c15.42,2.55,24.51,18.5,20.07,33.95A27.47,27.47,0,0,1,285,350a4.18,4.18,0,0,1-.92.1,4.5,4.5,0,0,1-4.09-5.91l.72-2.5a5.41,5.41,0,0,0-4-6.95,5,5,0,0,0-.85-.08,5.8,5.8,0,0,0-5.33,4.34l-.66,2.27a4.67,4.67,0,0,1-4.43,3.47,4.13,4.13,0,0,1-2.89-1.19,27.64,27.64,0,0,1-5.84-30c4.15-10.45,14.12-17.26,24.57-17.26m0-5.52c-12.84,0-24.77,8.33-29.7,20.74-5,12.68-2.24,26.79,7.11,36a9.62,9.62,0,0,0,6.75,2.77,10.18,10.18,0,0,0,8.89-5.38,10.14,10.14,0,0,0,2,6.83,9.64,9.64,0,0,0,7.76,3.91,9.93,9.93,0,0,0,2.1-.23A32.87,32.87,0,0,0,310.46,332a33.37,33.37,0,0,0-3.7-27.07A30.12,30.12,0,0,0,286,291.12a29.45,29.45,0,0,0-4.78-.39Z" class="b"></path><path d="M262.27,323.26l-7.66-.37a27.87,27.87,0,0,0,2.07,11.95c4.31-2.46,11.6-4.65,21.76-1a33.17,33.17,0,0,1,15.5,12.18,28,28,0,0,0,11.22-15.55c3.81-13.28-2.36-26.91-14-32.11,1.39,4.5,4.11,15.82-1.74,21.05C282.06,326.05,262.27,323.26,262.27,323.26Z" class="f"></path><path d="M305.06,337.74a8.69,8.69,0,0,1-2.48-.35L256.12,324A9,9,0,0,1,250,313l.1-.34a8.94,8.94,0,0,1,11.07-6.12l46.46,13.36a8.94,8.94,0,0,1,6.12,11.06l-.1.35A9,9,0,0,1,305.06,337.74Z" class="d"></path><path d="M258.68,308.92a6.3,6.3,0,0,1,1.71.24l46.47,13.36a6.18,6.18,0,0,1,4.23,7.65l-.1.34a6.18,6.18,0,0,1-5.93,4.47,6.05,6.05,0,0,1-1.72-.24l-46.46-13.36a6.18,6.18,0,0,1-4.23-7.65l.09-.34a6.19,6.19,0,0,1,5.94-4.47m0-5.52h0a11.75,11.75,0,0,0-11.24,8.47l-.1.34a11.71,11.71,0,0,0,8,14.48l46.47,13.36a11.73,11.73,0,0,0,14.48-8l.09-.34a11.7,11.7,0,0,0-8-14.48l-46.46-13.36a11.53,11.53,0,0,0-3.24-.46Z" class="b"></path><path d="M301.66,329.53l-40.59-11.67c-3.78-1.09-6.54-3.65-7.15-6.31a4.56,4.56,0,0,0-1.22,2c-1,3.38,2.21,7.26,7.12,8.67l40.59,11.67c4.9,1.41,9.66-.19,10.63-3.56a4.68,4.68,0,0,0,0-2.35C309.14,329.91,305.45,330.62,301.66,329.53Z" class="f"></path><path d="M281.79,298.34s-6.46,1.23-9.93,5.87-9.27-1.08-1-4.73A17.44,17.44,0,0,1,281.79,298.34Z" class="g"></path><rect transform="translate(98.38 -64.44) rotate(16.04)" rx="0.62" height="4.19" width="15.84" y="314.74" x="269.93" class="g"></rect><rect transform="translate(99.95 -67.97) rotate(16.04)" rx="0.74" height="4.19" width="6.6" y="318.57" x="287.87" class="g"></rect><path d="M207,182.74c-8.84,0-20.85-2.22-27.88-12.77-3-4.51-3.15-9.6-.41-14.72,6.2-11.58,27.47-21.89,39.89-21.89a17.28,17.28,0,0,1,3.43.31c14.35,2.87,23.77,17.53,24.16,18.16a2.75,2.75,0,0,1-.45,3.49L218,181.14a2.7,2.7,0,0,1-1.28.68,49.78,49.78,0,0,1-9.74.92Z" class="h"></path><path d="M218.58,136.12a14.37,14.37,0,0,1,2.89.26c13.36,2.67,22.37,16.92,22.37,16.92l-27.72,25.82A46.2,46.2,0,0,1,207,180c-7.95,0-19.18-1.93-25.59-11.54-10-15,22.07-32.32,37.19-32.32m0-5.52c-13.42,0-35.59,10.78-42.33,23.35-3.2,6-3,12.22.55,17.55,7.71,11.57,20.67,14,30.18,14a52,52,0,0,0,10.34-1,5.51,5.51,0,0,0,2.57-1.35l27.71-25.82a5.52,5.52,0,0,0,.9-7c-.42-.66-10.45-16.29-25.95-19.39a20.48,20.48,0,0,0-4-.36Z" class="b"></path><path d="M336,174.73c-19.71,0-43.92-19.52-45-20.35a2.76,2.76,0,0,1,1.75-4.9h.43c2.86,0,28.05-.41,31.22-14.67A79.41,79.41,0,0,0,326,118.3c.16-8.49.3-15.82,8.88-18a6.9,6.9,0,0,1,1.58-.19c7.92,0,14.84,13.25,16.77,17.31,6.85,14.41,11,36,0,49.51C349,172.12,343.23,174.73,336,174.73Z" class="h"></path><path d="M336.47,102.91c10.67,0,31,42.18,14.61,62.32-4,4.88-9.29,6.74-15.11,6.74-19,0-43.2-19.73-43.2-19.73h.43c3.74,0,30.3-.57,33.92-16.83,3.9-17.49-1.93-29.8,8.44-32.39a3.91,3.91,0,0,1,.91-.11m0-5.52h0a8.89,8.89,0,0,0-2.25.28c-10.63,2.65-10.81,12.17-11,20.58a77.24,77.24,0,0,1-1.52,16c-2.76,12.37-27.48,12.52-28.53,12.52h-.43a5.52,5.52,0,0,0-3.49,9.8c1.06.86,26,21,46.69,21,8,0,14.72-3,19.39-8.77,11.79-14.5,7.57-37.31.37-52.44-2.7-5.68-10-18.89-19.26-18.89Z" class="b"></path><path d="M329.54,109.1c-1.45,5.75.12,14.92-2.42,26.31-2.12,9.52-12.1,13.66-20.76,15.46l6.61,3.6s18,11.29,23.38-7.41C340.69,131.88,332.7,114.94,329.54,109.1Z" class="i"></path><path d="M260.89,287.79c-44.3,0-68.37-11.26-71.54-33.47-5.06-35.37,17.12-61.09,21.46-65.74,3.79-31.73,35.71-40.61,39.38-41.52a94.29,94.29,0,0,1,21.21-2.23c17.79,0,42.48,4.25,59.07,24.53,15,18.38,24,64.51,13.14,92.14-5,12.75-13.89,20.32-25.6,21.88-22.26,3-40.95,4.41-57.12,4.41Z" class="a"></path><path d="M271.39,147.59c17.52,0,41.27,4.36,56.94,23.52,20.38,24.9,29.39,104.19-10.68,109.54C299.91,283,279.78,285,260.88,285c-34.78,0-65.34-6.86-68.8-31.1-5.34-37.4,21.37-64.12,21.37-64.12,2.67-26.72,26.72-37.4,37.41-40.08a91.64,91.64,0,0,1,20.53-2.14m0-5.52a97.22,97.22,0,0,0-21.87,2.31c-17.11,4.28-37.9,18.07-41.33,43-5.7,6.33-26.59,32.25-21.57,67.35,3.39,23.78,28.38,35.84,74.26,35.84,16.3,0,35.11-1.45,57.5-4.43,12.75-1.71,22.36-9.87,27.79-23.61,11.24-28.44,1.93-75.95-13.57-94.9-17.27-21.11-42.82-25.54-61.21-25.54Z" class="b"></path><path d="M280.24,267.29l-9-47.41-47.14-16.71s-5.34,24,10.69,34.73c0,0,8,8,2.67,18.7l0,.07a6.94,6.94,0,0,1-8.92,3.05c-7.17-3.14-14.71-8.86-20.43-19.15-7.78-14-3.78-32.54.92-45.58-7.34,9.5-20.9,31.29-16.95,58.94,3.71,26,38.49,32,76.26,31l-2.81-3.58Z" class="c"></path><path d="M215.89,179.23c-.14.38-.31.73-.44,1.12l.67-1.23Z" class="c"></path><circle r="32.15" cy="195.15" cx="258.87" class="j"></circle><path d="M258.87,165.76a29.39,29.39,0,1,1-29.39,29.39,29.39,29.39,0,0,1,29.39-29.39m0-5.51a34.91,34.91,0,1,0,34.91,34.9,34.94,34.94,0,0,0-34.91-34.9Z" class="b"></path><circle r="32.15" cy="195.15" cx="258.87" class="j"></circle><path d="M258.87,165.76a29.39,29.39,0,1,1-29.39,29.39,29.39,29.39,0,0,1,29.39-29.39m0-5.51a34.91,34.91,0,1,0,34.91,34.9,34.94,34.94,0,0,0-34.91-34.9Z" class="b"></path><path d="M269.56,219.2a29.38,29.38,0,0,1-18.22-52.43,29.37,29.37,0,1,0,25.75,51.42A29.73,29.73,0,0,1,269.56,219.2Z" class="k"></path><circle r="26.8" cy="192.48" cx="322.99" class="j"></circle><path d="M323,168.44a24,24,0,1,1-24,24,24,24,0,0,1,24-24m0-5.52a29.56,29.56,0,1,0,29.56,29.56A29.59,29.59,0,0,0,323,162.92Z" class="b"></path><path d="M331,205.84a24,24,0,0,1-22.48-32.54A24,24,0,1,0,345.46,201,23.88,23.88,0,0,1,331,205.84Z" class="k"></path><circle r="17.37" cy="201.83" cx="246.85" class="b"></circle><path d="M260.37,212.73a17.08,17.08,0,0,0-11-11.3.8.8,0,0,1,0-1.54,17.08,17.08,0,0,0,11.3-11,.8.8,0,0,1,1.54,0,17.1,17.1,0,0,0,11,11.3.8.8,0,0,1,0,1.54,17.08,17.08,0,0,0-11.3,11A.8.8,0,0,1,260.37,212.73Z" class="j"></path><circle r="14.69" cy="196.49" cx="313.64" class="b"></circle><path d="M323.83,207.21a17.08,17.08,0,0,0-11-11.3.8.8,0,0,1,0-1.54,17.08,17.08,0,0,0,11.3-11,.8.8,0,0,1,1.54,0,17.09,17.09,0,0,0,11,11.29.8.8,0,0,1,0,1.54,17.1,17.1,0,0,0-11.3,11A.8.8,0,0,1,323.83,207.21Z" class="j"></path><path d="M303,296.76c-37.09,0-57.52-15.68-57.52-44.17,0-24.35,25.8-44.17,57.52-44.17,31.19,0,57.53,20.84,57.53,45.51C360.48,278,335.21,296.76,303,296.76Z" class="h"></path><path d="M303,211.18c30.25,0,54.77,19.88,54.77,42.75S333.2,294,303,294s-54.77-10.68-54.77-41.41c0-22.71,24.52-41.41,54.77-41.41m0-5.52c-33.24,0-60.28,21.06-60.28,46.93,0,30.27,21.41,46.93,60.28,46.93,33.81,0,60.29-20,60.29-45.59,0-26.16-27.61-48.27-60.29-48.27Z" class="b"></path><path d="M285.59,270c-26.84-8.95-29.39-34.73-19.51-47.86-11,7.59-17.9,18.46-17.9,30.49C248.18,283.32,272.7,294,303,294c22.52,0,41.85-9.54,50.27-23.86l4.5-16.21S317.65,280.65,285.59,270Z" class="i"></path><path d="M328.42,211.18c2.16,4.31-8,10.69-13.36,10.69-10.33,0-18.7-2.67-24-9.35-3-3.76,8.37-9.35,18.7-9.35S325.75,205.84,328.42,211.18Z" class="l"></path><path d="M315.06,224.63c-11.87,0-20.68-3.5-26.2-10.39a4.82,4.82,0,0,1-.56-5.27c2.42-5.05,13.23-8.56,21.42-8.56,11.19,0,17.92,3,21.17,9.54h0a6.17,6.17,0,0,1-.57,6.21C327.68,220.43,320.12,224.63,315.06,224.63ZM293.42,211.1c4.49,5.39,11.58,8,21.64,8,2.57,0,7.72-2.39,10.07-5.18a2.85,2.85,0,0,0,.83-1.51h0c-1.51-3-4.72-6.49-16.23-6.49C301.83,205.93,294.68,209.35,293.42,211.1Z" class="b"></path><path d="M277.41,262.91a61.3,61.3,0,0,1-11.07-.93,2.76,2.76,0,0,1,1.08-5.41c.26.05,25.49,4.83,40.26-9.94,12.74-12.73,5.43-22.66,5.11-23.07a2.76,2.76,0,0,1,4.35-3.4c.11.14,10.74,14.08-5.56,30.38C301.28,260.84,287.13,262.91,277.41,262.91Z" class="b"></path><path d="M343.74,257.57A42.68,42.68,0,0,1,313,245.19a2.76,2.76,0,0,1,3.91-3.9c14.68,14.68,34.59,10,34.78,10a2.76,2.76,0,0,1,1.34,5.36A41.66,41.66,0,0,1,343.74,257.57Z" class="b"></path><path d="M325.37,301.43c-8.66,0-15.2-4.11-17.49-11-4.66-14-21.38-26.09-21.55-26.21a2.75,2.75,0,0,1,1.6-5c7.21,0,18.37-8.87,22.31-12.51a3.44,3.44,0,0,1,2.62-1.16c1.87,0,4,1.33,7.12,4.44s13.08,5.84,18.56,6.75a2.82,2.82,0,0,1,1.08.43c5.81,3.87,15.61,14.76,11.12,28.25-3.46,10.38-15.66,16-25.37,16Z" class="m"></path><path d="M312.86,248.33c.67,0,2.13.6,5.17,3.63,5,5,20.06,7.53,20.06,7.53s15.05,10,10,25.08c-2.91,8.74-13.45,14.1-22.75,14.1-6.71,0-12.77-2.79-14.87-9.09-5-15.05-22.57-27.59-22.57-27.59,10,0,24.37-13.4,24.37-13.4s.11-.26.56-.26m0-5.52a6.2,6.2,0,0,0-4.59,2c-5.37,4.93-15,11.68-20.34,11.68a5.52,5.52,0,0,0-3.21,10c.16.12,16.17,11.72,20.55,24.85,2.68,8.05,10.2,12.85,20.1,12.85,10.94,0,24.07-6.13,28-17.87,5-15.06-5.79-27.14-12.21-31.42A5.57,5.57,0,0,0,339,254c-5.37-.9-14.52-3.42-17.07-6-3.73-3.73-6.36-5.25-9.07-5.25Z" class="b"></path><path d="M348.29,283.92a27.38,27.38,0,0,1-20,4.74c-16-2.67-21.37-26.72-16-26.72,4.1,0,12.88-3.13,16.77-4.59-4.17-1.25-8.7-3-11-5.39-5-5-5.73-3.37-5.73-3.37S298,262,287.93,262c0,0,17.56,12.54,22.57,27.59s32.6,10,37.62-5C348.19,284.35,348.22,284.14,348.29,283.92Z" class="n"></path><path d="M333,278.8h0a2.76,2.76,0,0,1-2.74-2.77c0-.06-.12-7.73-6.89-17.9-6-9-14.77-4.61-15.14-4.42a2.76,2.76,0,0,1-2.52-4.91A17,17,0,0,1,328,255.07c7.77,11.7,7.81,20.61,7.81,21A2.75,2.75,0,0,1,333,278.8Z" class="b"></path><path d="M266.26,149.28a29,29,0,0,1,6.92-.83,27.57,27.57,0,0,1,7,.9,23.17,23.17,0,0,1,6.75,2.9,26.22,26.22,0,0,1,5.76,4.86,5.55,5.55,0,1,1-8.08,7.6,5.65,5.65,0,0,1-.62-.77l-.13-.21a15.85,15.85,0,0,0-2.75-3.52,14.31,14.31,0,0,0-3.82-2.65,19.38,19.38,0,0,0-4.73-1.6,22.76,22.76,0,0,0-5-.43h-.4a3.18,3.18,0,0,1-.85-6.26Z" class="b"></path><path d="M322.93,157.08a16,16,0,0,0-3.39,0,11.32,11.32,0,0,0-3.22.88,10,10,0,0,0-4.45,3.9,5.59,5.59,0,1,1-8.27-7.35l.19-.16a21.56,21.56,0,0,1,5-3.25,17.94,17.94,0,0,1,5.6-1.62,19.71,19.71,0,0,1,5.54.08,21,21,0,0,1,5.26,1.55,3.16,3.16,0,0,1-1.57,6Z" class="b"></path><path d="M216.12,147.06c11.14,3.18,18.45,1.63,22.58-.15-3.95-4.16-9.93-9.07-17.23-10.53-11.12-2.23-38.87,10.36-41.71,23.88l.1.16S197.42,141.72,216.12,147.06Z" class="i"></path><path d="M308.3,372.82s-6.68,41.41-14.7,44.08,2.67,8,10.69,8,29.39,0,29.39-40.08" class="c"></path><path d="M304.29,427.67c-5.38,0-15.4-2.58-16.23-7.72-.19-1.17-.12-4.07,4.67-5.67,3.42-1.14,9.43-20.72,12.84-41.9a2.76,2.76,0,1,1,5.45.88c-2.09,12.94-7.88,43.37-16.55,46.26l-.12,0a21.26,21.26,0,0,0,9.94,2.6c8,0,26.63,0,26.63-37.32a2.76,2.76,0,0,1,5.52,0C336.44,427.67,312.24,427.67,304.29,427.67Z" class="b"></path><path d="M257.37,375.49s6.68,41.41,14.69,44.08-2.67,8-10.68,8-29.39,0-29.39-40.08" class="a"></path><path d="M261.37,430.35c-8,0-32.14,0-32.14-42.84a2.76,2.76,0,1,1,5.52,0c0,37.32,18.66,37.32,26.62,37.32a21.27,21.27,0,0,0,9.95-2.6l-.13,0c-8.67-2.89-14.46-33.31-16.55-46.26a2.76,2.76,0,0,1,5.45-.88c3.48,21.55,9.36,40.74,12.84,41.9,4.79,1.6,4.86,4.5,4.67,5.67C276.77,427.77,266.75,430.35,261.37,430.35Zm11.05-7.59h0Z" class="b"></path><path d="M213.45,371.48s16,2.67,16,26.72" class="a"></path><path d="M229.48,401a2.77,2.77,0,0,1-2.76-2.76c0-21.23-13.18-23.9-13.74-24a2.76,2.76,0,0,1,.93-5.44c.18,0,18.33,3.36,18.33,29.44A2.76,2.76,0,0,1,229.48,401Z" class="b"></path></svg>